<svg xmlns="http://www.w3.org/2000/svg" viewBox="0 0 420 150" role="img" aria-labelledby="title">
<title id="title">YOHJ</title>
<defs><linearGradient id="g" x1="0" x2="1"><stop stop-color="#ffffff"/><stop offset=".52" stop-color="#62a9ff"/><stop offset="1" stop-color="#20d5ff"/></linearGradient><filter id="glow"><feGaussianBlur stdDeviation="3" result="b"/><feMerge><feMergeNode in="b"/><feMergeNode in="SourceGraphic"/></feMerge></filter></defs>
<rect width="420" height="150" fill="none"/>
<path d="M39 36l41 39 41-39M80 75v39M145 75c0-23 17-40 42-40s42 17 42 40-17 40-42 40-42-17-42-40zm27 0c0 10 6 18 15 18s15-8 15-18-6-18-15-18-15 8-15 18zM252 36v78m0-39h47m0-39v78M356 36v52c0 18-10 27-29 27-8 0-15-2-21-6" fill="none" stroke="url(#g)" stroke-width="13" stroke-linecap="round" stroke-linejoin="round" filter="url(#glow)"/>
</svg>
